<svg width="12" height="14" viewBox="0 0 12 14" fill="none" xmlns="http://www.w3.org/2000/svg">
<path d="M5.43476 13.7175C1.27258 7.95788 0.5 7.36676 0.5 5.25C0.5 2.3505 2.96242 0 6 0C9.03758 0 11.5 2.3505 11.5 5.25C11.5 7.36676 10.7274 7.95788 6.56524 13.7175C6.2921 14.0942 5.70787 14.0941 5.43476 13.7175ZM6 7.4375C7.26566 7.4375 8.29167 6.45813 8.29167 5.25C8.29167 4.04187 7.26566 3.0625 6 3.0625C4.73434 3.0625 3.70833 4.04187 3.70833 5.25C3.70833 6.45813 4.73434 7.4375 6 7.4375Z" fill="#000"/>
</svg>
