<svg width="25" height="25" viewBox="0 0 25 25" fill="none" xmlns="http://www.w3.org/2000/svg">
<path d="M4.53129 5.0926V9.72223H6.30212V6.01852H9.84379V4.16667H5.41671C5.18188 4.16667 4.95667 4.26422 4.79062 4.43787C4.62458 4.61151 4.53129 4.84703 4.53129 5.0926V5.0926ZM20.4688 9.72223V5.0926C20.4688 4.84703 20.3755 4.61151 20.2095 4.43787C20.0434 4.26422 19.8182 4.16667 19.5834 4.16667H15.1563V6.01852H18.698V9.72223H20.4688ZM18.698 18.9815H15.1563V20.8333H19.5834C19.8182 20.8333 20.0434 20.7358 20.2095 20.5621C20.3755 20.3885 20.4688 20.153 20.4688 19.9074V15.2778H18.698V18.9815ZM9.84379 20.8333V18.9815H6.30212V15.2778H4.53129V19.9074C4.53129 20.153 4.62458 20.3885 4.79062 20.5621C4.95667 20.7358 5.18188 20.8333 5.41671 20.8333H9.84379ZM3.64587 11.5741H21.3542V13.4259H3.64587V11.5741Z" fill="#000"/>
</svg>
